<svg width="640" height="360" viewBox="0 0 640 360" fill="none" xmlns="http://www.w3.org/2000/svg">
  <defs>
    <linearGradient id="alkhawarizmi-bg" x1="0" y1="0" x2="640" y2="360" gradientUnits="userSpaceOnUse">
      <stop offset="0" stop-color="#020910" />
      <stop offset="0.45" stop-color="#031C29" />
      <stop offset="1" stop-color="#05121A" />
    </linearGradient>
    <radialGradient id="alkhawarizmi-halo" cx="0" cy="0" r="1" gradientUnits="userSpaceOnUse" gradientTransform="translate(320 150) rotate(90) scale(200 320)">
      <stop offset="0" stop-color="#0EA5E9" stop-opacity="0.45" />
      <stop offset="1" stop-color="#020910" stop-opacity="0" />
    </radialGradient>
    <radialGradient id="alkhawarizmi-node" cx="0" cy="0" r="1" gradientUnits="userSpaceOnUse" gradientTransform="translate(430 160) rotate(90) scale(120 120)">
      <stop offset="0" stop-color="#25F3CE" stop-opacity="0.4" />
      <stop offset="1" stop-color="#03121D" stop-opacity="0" />
    </radialGradient>
    <linearGradient id="alkhawarizmi-arc" x1="140" y1="230" x2="520" y2="160" gradientUnits="userSpaceOnUse">
      <stop offset="0" stop-color="#F5CF95" stop-opacity="0.2" />
      <stop offset="0.5" stop-color="#38BDF8" stop-opacity="0.7" />
      <stop offset="1" stop-color="#2DD4BF" stop-opacity="0.65" />
    </linearGradient>
    <linearGradient id="alkhawarizmi-scanlines" x1="120" y1="240" x2="520" y2="240" gradientUnits="userSpaceOnUse">
      <stop offset="0" stop-color="#38BDF8" stop-opacity="0" />
      <stop offset="0.15" stop-color="#38BDF8" stop-opacity="0.4" />
      <stop offset="0.8" stop-color="#2DD4BF" stop-opacity="0.4" />
      <stop offset="1" stop-color="#2DD4BF" stop-opacity="0" />
    </linearGradient>
  </defs>

  <rect width="640" height="360" rx="36" fill="url(#alkhawarizmi-bg)" />
  <rect x="20" y="20" width="600" height="320" rx="30" fill="#01060A" fill-opacity="0.75" stroke="white" stroke-opacity="0.08" stroke-width="2" />
  <rect x="32" y="32" width="576" height="296" rx="24" fill="#010A13" />
  <rect x="32" y="32" width="576" height="296" rx="24" fill="url(#alkhawarizmi-halo)" />

  <g opacity="0.35">
    <path d="M76 120H564" stroke="#0B2F45" stroke-width="1" stroke-dasharray="10 18" />
    <path d="M76 170H564" stroke="#0B2F45" stroke-width="1" stroke-dasharray="10 18" />
    <path d="M76 220H564" stroke="#0B2F45" stroke-width="1" stroke-dasharray="10 18" />
    <path d="M76 270H564" stroke="#0B2F45" stroke-width="1" stroke-dasharray="10 18" />
  </g>

  <circle cx="430" cy="160" r="105" fill="url(#alkhawarizmi-node)" />
  <circle cx="210" cy="190" r="74" fill="#041C2A" stroke="#0EA5E9" stroke-width="4" stroke-opacity="0.5" />
  <circle cx="320" cy="120" r="44" fill="none" stroke="#38BDF8" stroke-width="3" stroke-opacity="0.5" stroke-dasharray="12 18" />
  <circle cx="455" cy="205" r="48" fill="#03131D" stroke="#2DD4BF" stroke-width="3" stroke-opacity="0.5" />

  <path d="M150 236C198 206 236 178 292 190C336 200 366 234 412 226C468 216 498 168 540 154" stroke="url(#alkhawarizmi-arc)" stroke-width="6" stroke-linecap="round" />

  <circle cx="292" cy="190" r="7" fill="#0EA5E9" />
  <circle cx="366" cy="234" r="6" fill="#2DD4BF" />
  <circle cx="412" cy="226" r="8" fill="#F5CF95" />
  <circle cx="540" cy="154" r="7" fill="#38BDF8" />

  <rect x="120" y="250" width="400" height="74" rx="20" fill="#04101B" stroke="#0EA5E9" stroke-opacity="0.35" />
  <path d="M120 286H520" stroke="url(#alkhawarizmi-scanlines)" stroke-width="1.5" />
  <rect x="146" y="266" width="150" height="14" rx="7" fill="#F5CF95" />
  <rect x="146" y="300" width="110" height="12" rx="6" fill="#38BDF8" fill-opacity="0.8" />
  <rect x="330" y="266" width="170" height="14" rx="7" fill="#2DD4BF" />
  <rect x="360" y="300" width="140" height="12" rx="6" fill="#0B2740" />

  <text x="50%" y="92" text-anchor="middle" font-family="Inter, 'Segoe UI', sans-serif" font-size="24" font-weight="600" fill="#F5F2EA">
    AL KHAWARIZMI HUB
  </text>
  <text x="50%" y="126" text-anchor="middle" font-family="Inter, 'Segoe UI', sans-serif" font-size="14" letter-spacing="0.3em" fill="#38BDF8">
    DIGITAL LEARNING
  </text>
  <text x="50%" y="324" text-anchor="middle" font-family="Inter, 'Segoe UI', sans-serif" font-size="18" fill="#F5F2EA" fill-opacity="0.9">
    Streaming Kajian &amp; Materi Adaptif
  </text>
</svg>

