<svg width="640" height="360" viewBox="0 0 640 360" fill="none" xmlns="http://www.w3.org/2000/svg">
  <defs>
    <linearGradient id="ma-bg" x1="0" y1="0" x2="640" y2="360" gradientUnits="userSpaceOnUse">
      <stop offset="0" stop-color="#120513" />
      <stop offset="1" stop-color="#1F0C24" />
    </linearGradient>
    <radialGradient id="ma-glow" cx="0" cy="0" r="1" gradientUnits="userSpaceOnUse" gradientTransform="translate(320 150) rotate(90) scale(220 320)">
      <stop offset="0" stop-color="#F472B6" stop-opacity="0.25" />
      <stop offset="1" stop-color="#120513" stop-opacity="0" />
    </radialGradient>
  </defs>
  <rect width="640" height="360" rx="36" fill="url(#ma-bg)" />
  <rect x="24" y="24" width="592" height="312" rx="28" fill="#09030D" stroke="white" stroke-opacity="0.08" stroke-width="2" />
  <rect x="24" y="24" width="592" height="312" rx="28" fill="url(#ma-glow)" />
  <path d="M120 250C150 206 210 182 280 204C320 218 340 240 380 234C420 228 460 190 520 170" stroke="#F472B6" stroke-width="7" stroke-linecap="round" />
  <rect x="110" y="120" width="420" height="130" rx="28" fill="#170818" stroke="#FBCFE8" stroke-opacity="0.4" />
  <rect x="150" y="152" width="160" height="70" rx="16" fill="#260E2A" stroke="#F472B6" stroke-opacity="0.5" />
  <path d="M160 176H260" stroke="#F472B6" stroke-width="6" stroke-linecap="round" stroke-dasharray="16 12" />
  <rect x="330" y="152" width="160" height="14" rx="7" fill="#FBCFE8" />
  <rect x="330" y="176" width="140" height="12" rx="6" fill="#F472B6" />
  <rect x="330" y="198" width="110" height="10" rx="5" fill="#341132" />
  <circle cx="200" cy="185" r="34" fill="#F472B6" fill-opacity="0.2" stroke="#F472B6" stroke-width="2" />
  <circle cx="200" cy="185" r="16" fill="#F472B6" fill-opacity="0.6" />
  <text x="50%" y="90" text-anchor="middle" font-family="Inter, 'Segoe UI', sans-serif" font-size="24" font-weight="600" fill="#F5F2EA">
    MA AL FALAH
  </text>
  <text x="50%" y="122" text-anchor="middle" font-family="Inter, 'Segoe UI', sans-serif" font-size="14" letter-spacing="0.3em" fill="#FBCFE8">
    DIGITAL WORKSPACE
  </text>
  <text x="50%" y="318" text-anchor="middle" font-family="Inter, 'Segoe UI', sans-serif" font-size="18" fill="#F5F2EA" fill-opacity="0.9">
    Automasi Email & Arsip Terpadu
  </text>
</svg>

